<svg width="29" height="29" viewBox="0 0 29 29" fill="none" xmlns="http://www.w3.org/2000/svg">
<path d="M25.8134 14.0132C25.8134 13.1636 25.746 12.3094 25.6024 11.4735H14.08V16.2866H20.6783C20.4045 17.8389 19.5248 19.2122 18.2365 20.0848V23.2078H22.1731C24.4847 21.0309 25.8134 17.816 25.8134 14.0132Z" fill="#4285F4"/>
<path d="M14.1293 25.8154C17.2919 25.8154 19.959 24.8156 21.9022 23.0898L18.1235 20.2689C17.0721 20.9575 15.7149 21.3475 14.1336 21.3475C11.0744 21.3475 8.4805 19.3603 7.54981 16.6887H3.65039V19.5968C5.64103 23.4093 9.69556 25.8154 14.1293 25.8154Z" fill="#34A853"/>
<path d="M7.56149 16.3046C7.06339 14.8621 7.06339 13.3001 7.56149 11.8576V8.86589H3.61161C1.92504 12.1478 1.92504 16.0144 3.61161 19.2964L7.56149 16.3046Z" fill="#FBBC04"/>
<path d="M14.0874 6.81311C15.7525 6.78823 17.3618 7.39358 18.5677 8.50478L21.9022 5.28314C19.7908 3.36757 16.9884 2.31442 14.0874 2.34759C9.6714 2.34759 5.63307 4.75242 3.65039 8.56697L7.52993 11.4735C8.45261 8.79916 11.0404 6.81311 14.0874 6.81311Z" fill="#EA4335"/>
</svg>
